<?xml version="1.0" encoding="UTF-8" ?>
<!DOCTYPE svg PUBLIC "-//W3C//DTD SVG 1.1//EN" "http://www.w3.org/Graphics/SVG/1.1/DTD/svg11.dtd">
<svg width="512pt" height="512pt" viewBox="0 0 512 512" version="1.1" xmlns="http://www.w3.org/2000/svg">
<g id="#000000ff">
<path fill="#000000" opacity="1.00" d=" M 235.00 0.00 L 278.00 0.00 C 278.00 78.33 277.99 156.66 278.00 235.00 C 356.00 235.01 434.00 235.00 512.00 235.00 L 512.00 278.00 C 434.00 278.00 356.00 277.99 278.00 278.00 C 277.99 356.00 278.00 434.00 278.00 512.00 L 235.00 512.00 C 235.00 434.00 235.01 356.00 235.00 278.00 C 156.66 278.00 78.33 278.00 0.00 278.00 L 0.00 235.00 C 78.33 235.00 156.66 235.01 235.00 235.00 C 235.01 156.66 235.00 78.33 235.00 0.00 Z" />
</g>
</svg>
