<?xml version="1.0" encoding="UTF-8" ?>
<!DOCTYPE svg PUBLIC "-//W3C//DTD SVG 1.1//EN" "http://www.w3.org/Graphics/SVG/1.1/DTD/svg11.dtd">
<svg width="512pt" height="512pt" viewBox="0 0 512 512" version="1.1" xmlns="http://www.w3.org/2000/svg">
<g id="#000000ff">
<path fill="#4E4E4E" opacity="1.00" d=" M 2.93 48.06 C 17.59 32.16 32.42 16.40 47.23 0.64 C 51.45 3.76 54.82 7.81 58.57 11.43 C 121.91 74.76 185.24 138.09 248.58 201.43 C 251.26 204.23 254.04 206.93 256.93 209.52 C 267.15 199.88 276.71 189.57 286.68 179.68 C 337.55 128.54 388.35 77.35 439.13 26.13 C 447.74 17.67 455.94 8.78 464.85 0.63 C 479.83 16.29 494.61 32.16 509.29 48.10 C 496.47 61.66 482.94 74.55 469.85 87.85 C 426.18 131.52 382.52 175.18 338.85 218.85 C 326.55 231.27 314.01 243.45 301.85 256.01 C 333.30 287.93 365.20 319.42 396.82 351.17 C 424.16 378.51 451.49 405.84 478.82 433.18 C 488.93 443.49 499.45 453.40 509.31 463.95 C 494.61 479.87 479.87 495.79 464.84 511.40 C 452.47 499.71 440.73 487.35 428.64 475.36 C 385.17 431.50 341.67 387.67 298.13 343.88 C 284.30 330.18 270.88 316.07 256.93 302.50 C 240.56 318.26 224.74 334.60 208.59 350.59 C 158.42 400.75 108.26 450.92 58.09 501.08 C 54.50 504.57 51.24 508.41 47.22 511.42 C 32.43 495.63 17.55 479.92 2.93 463.97 C 20.52 445.89 38.58 428.25 56.35 410.34 C 106.52 360.19 156.66 310.00 206.86 259.86 C 208.06 258.59 209.24 257.30 210.43 256.01 C 194.29 239.34 177.65 223.16 161.32 206.68 C 120.49 165.85 79.65 125.01 38.82 84.18 C 26.90 72.09 14.65 60.33 2.93 48.06 Z" />
</g>
</svg>
