<?xml version="1.0" encoding="UTF-8" ?>
<!DOCTYPE svg PUBLIC "-//W3C//DTD SVG 1.1//EN" "http://www.w3.org/Graphics/SVG/1.1/DTD/svg11.dtd">
<svg width="512pt" height="512pt" viewBox="0 0 512 512" version="1.1" xmlns="http://www.w3.org/2000/svg">
<g id="#000000ff">
<path fill="#000000" opacity="1.00" d=" M 252.39 0.00 L 260.54 0.00 C 290.14 1.08 319.32 11.91 342.14 30.85 C 369.10 52.82 387.06 85.43 391.06 120.00 C 410.38 119.99 429.69 120.02 449.01 119.98 C 453.32 119.85 457.80 120.26 461.60 122.47 C 468.26 126.00 472.36 133.51 472.01 141.01 C 471.98 258.00 472.03 375.00 471.98 491.99 C 472.22 501.95 464.05 510.76 454.29 512.00 L 57.88 512.00 C 48.03 510.89 39.75 501.98 40.01 491.96 C 39.99 374.63 39.99 257.29 40.02 139.95 C 39.77 129.69 48.64 120.32 58.92 120.06 C 79.59 119.91 100.26 120.05 120.93 120.00 C 124.75 87.13 141.13 55.97 166.01 34.16 C 189.61 13.08 220.77 0.85 252.39 0.00 M 195.54 61.51 C 177.55 76.01 165.14 97.21 161.32 120.00 C 224.44 119.98 287.55 120.03 350.66 119.98 C 346.91 97.64 334.92 76.84 317.51 62.36 C 300.98 48.41 279.59 40.39 257.97 40.03 C 235.48 39.47 212.93 47.25 195.54 61.51 M 80.00 160.01 C 80.00 264.00 80.00 368.00 80.00 472.00 C 197.33 472.00 314.66 472.00 432.00 472.00 C 432.00 368.00 432.00 264.00 432.00 160.00 C 418.67 160.00 405.33 160.00 392.00 160.00 C 391.98 180.02 392.03 200.03 391.98 220.04 C 392.02 226.70 388.45 233.23 382.82 236.79 C 377.02 240.62 369.20 241.03 363.02 237.86 C 356.38 234.59 351.91 227.39 352.01 219.98 C 351.98 199.99 352.01 179.99 352.00 160.00 C 288.00 160.00 224.00 160.00 160.00 160.00 C 159.99 179.99 160.02 199.98 159.99 219.96 C 160.05 226.67 156.46 233.25 150.78 236.82 C 144.79 240.76 136.65 241.03 130.40 237.53 C 124.10 234.14 119.94 227.19 120.01 220.03 C 119.98 200.02 120.02 180.01 120.00 160.00 C 106.66 160.00 93.33 159.99 80.00 160.01 Z" />
</g>
</svg>
