<?xml version="1.0" encoding="utf-8"?>
<!-- Generator: Adobe Illustrator 24.3.0, SVG Export Plug-In . SVG Version: 6.00 Build 0)  -->
<svg version="1.1" id="Слой_1" xmlns="http://www.w3.org/2000/svg" xmlns:xlink="http://www.w3.org/1999/xlink" x="0px" y="0px"
	 viewBox="0 0 330 330" style="enable-background:new 0 0 330 330;" xml:space="preserve">
<g id="_x23_ffffffff">
</g>
<g id="_x23_000000ff">
	<path d="M70.1,14.6c21.9-6,46.1-3,66,7.8c11.2,5.8,20.5,14.5,28.9,23.9c11.6-13.5,26.3-24.7,43.4-30.1c18.8-6.4,39.6-6.2,58.2,0.5
		c33.1,11.4,57,42.8,62.3,77c2.1,16.1,1.3,32.9-4.1,48.3c-3.9,11.7-10.1,22.6-17.9,32.1c-6.9,7.8-14,15.3-21.3,22.6
		c-6.2,7.1-12.9,13.8-19.5,20.5c-6.4,7.5-13.7,14.1-20.2,21.6c-24,25-47.6,50.3-71.6,75.3c-3.7,4.7-11.1,5.9-15.9,2.3
		c-9.8-9.2-18.5-19.5-28-29C96.4,251.5,62.4,215.8,28.5,180C10.6,161.5-0.2,136,0,110.1c-0.5-22.8,7.5-45.6,21.7-63.4
		C33.8,31.1,51,19.5,70.1,14.6 M79.6,37.6C64.1,40.7,50,49.8,40.5,62.3c-10.5,13.2-15.9,30-16.2,46.8c0.1,16.4,5.3,32.7,15,45.9
		c7.4,9.7,16.6,17.8,24.7,26.9c33.7,35.5,67.4,71,101,106.6c15.7-16.5,31.2-33.2,47.1-49.5c7-8.2,15.1-15.4,22.1-23.6
		c10.8-10.9,20.9-22.4,31.8-33.2c8.1-9.5,17.7-17.7,25.2-27.7c8.8-11.9,13.9-26.5,14.6-41.3c0.8-17.4-4.4-35.1-14.9-49
		c-9.4-13-23.4-22.8-39.1-26.2c-20.2-4.9-42.5,0.6-58.1,14.2c-6.7,6.2-12.8,13.1-19.1,19.7c-3.5,4-9.5,5.7-14.4,3.4
		c-4.7-2-7.3-6.8-10.9-10.2c-5.1-4.9-9.6-10.5-15.2-14.9C118.9,38.2,98.4,33.5,79.6,37.6z"/>
</g>
</svg>
