<?xml version="1.0" encoding="utf-8"?>
<!-- Generator: Adobe Illustrator 24.3.0, SVG Export Plug-In . SVG Version: 6.00 Build 0)  -->
<svg version="1.1" id="Слой_1" xmlns="http://www.w3.org/2000/svg" xmlns:xlink="http://www.w3.org/1999/xlink" x="0px" y="0px"
	 viewBox="0 0 983 983" style="enable-background:new 0 0 983 983;" xml:space="preserve">
<style type="text/css">
	.st0{fill:#0B0B0B;}
</style>
<g id="Слой_2_1_">
</g>
<g id="Слой_1_1_">
	<g id="_x23_0b0b0bff">
		<path class="st0" d="M0,0h983v983H0V0 M39,41c0,144,0,288,0,432c144.3,0,288.7,0,433,0c-0.2-143.9,0.4-287.8-0.3-431.8
			C327.5,40.7,183.2,41.1,39,41 M511.3,41.3c-0.8,143.7-0.1,287.4-0.3,431.1c11.2,1.9,22.7,0.2,34,0.6c125-0.1,250,0,375,0
			c7.6,0,15.3-0.4,23-0.8c-0.1-143.6,0.4-287.2-0.3-430.9C887.5,40.6,832.2,41.2,777,41C688.4,41.2,599.9,40.6,511.3,41.3
			 M510.7,509.6c0.8,144.1,0.1,288.2,0.4,432.3c38.7,0.1,77.3-0.2,116,0.1c27.6,1.4,55.3,0.8,83,0.9c68.3,0,136.7-0.1,205,0
			c9.5-0.2,19.2,0.1,28.7-1.3c0.8-118.6,0.1-237.2,0.3-355.8c-1.3-25.4-1-50.9-0.6-76.4c-8.8-0.5-17.6-0.7-26.4-0.7
			c-116.7,0.1-233.3,0-350,0.1C548.2,509,529.4,508.6,510.7,509.6 M39.2,510c0.5,7.3,0.8,14.6,0.8,22c0,136.7,0,273.3,0,410
			c143.7,0,287.3,0,431,0c0-144,0-288,0-432C327,510,183.1,510,39.2,510z"/>
		<path class="st0" d="M177.4,68.5c11-1.1,22.5,3,29.7,11.4c4.4,4.6,4.9,11.4,4.2,17.4c-4.4,34.4-9.5,68.7-11.9,103.3
			c-1,10.9-2,21.9-1.1,32.8c1.1,5.9,0.9,13.2,6.2,17.1c3.9,1.1,8,0.5,11.3-1.8c13.3-8.9,22.3-22.4,32.6-34.4
			c28.2-39.5,53.6-80.9,78.2-122.7c5.4-9.3,14-19.9,26.1-18.4c11.3,2.7,22.5,8.9,28.8,18.9c5.4,10-0.1,21.3-5.2,30.1
			c-23.1,40.6-49.5,79.2-74.2,118.9c-4.5,7.4-8.2,15.8-8,24.6c3.4,11.7,10,22.2,17,32c13.3,19.4,28.3,37.5,43.5,55.4
			c5.2,7.1,11.9,12.8,17.6,19.4c3.8,5.2,8.3,9.8,12,15.1c3.8,5.5,9.3,9.9,11.6,16.4c2,16.2-9.2,33-24.7,37.9
			c-10.3,3.6-19-3.8-26.8-9.3c-7.8-5.1-13.7-12.4-21.1-18c-3.9-3.1-7.3-6.7-10.6-10.4c-11.6-11.4-23.1-22.8-34.4-34.5
			c-7.3-6.4-12.6-14.7-19.6-21.4c-7.4-7.6-13.9-17.8-25-20c-9.9-2-18.5,6-21.1,15c-5.7,17.2-3,35.7-1.1,53.3
			c0.3,7.6,3.2,17.1-4.5,22.2c-13,10.2-32.5,10.5-46.3,1.5c-11.7-12-14.6-29.3-17.9-45c-7.9-52-5.6-104.9-4.4-157.3
			c2.3-37.9,4.2-75.8,8.8-113.5c1.6-9.3,0.1-21.4,8.2-28.2C161.2,70.7,169.5,68.7,177.4,68.5z"/>
		<path class="st0" d="M833.3,68.3c8.9-0.5,18.9,2.7,23.6,10.8c3.4,4.9,3.4,11.2,3,16.9c-5.3,18.8-24.5,32.5-43.9,32.2
			c-8.4,1.3-16.1-3.8-21.3-9.9c-8.1-15.7,2-34.3,16.2-42.3C817.6,71.5,825.5,69.3,833.3,68.3z"/>
		<path class="st0" d="M664.4,69.5c9.4-1.5,20.4-0.5,27,7.1c8.6,9.9,4.7,25.3-3.6,34.3c-9.1,14-27.8,19.2-43.6,16
			c-9.4-1.4-16.5-10.5-16.2-19.9c-1.5-8.8,4.6-16,9.1-22.8C644.2,76.4,654.2,71.4,664.4,69.5z"/>
		<path class="st0" d="M727.5,128.9c14.6-1.8,29.6-1,44.1,2c8.5,3.3,17.3,5.7,25.3,10c18.1,8.5,32.1,23.3,44.1,38.9
			c8.7,13.6,16.3,28.2,19.8,44.2c18.9,68.9-9.5,147.8-67.3,189.5c-22.2,15.9-49.1,25.7-76.5,26.2c-36.9-0.3-73.4-18.5-95.3-48.3
			c-28.2-36.8-34.3-87.1-23.7-131.3c7.2-31.3,22.7-60.3,43.6-84.5c9.3-8.4,17.6-17.8,28.2-24.6C687.2,139.7,706.8,131.4,727.5,128.9
			 M738.4,184.5c-26.5,1.8-49.3,18.3-65.8,38.1c-16.1,20.3-25.2,45.8-27.3,71.6c-0.5,22.7,3.2,46.9,16.9,65.6
			c10.1,14.6,26,25.7,43.8,27.9c11.3,1,23,0.3,33.6-4c25.1-9.9,44.8-30.9,55.9-55.2c13.5-26.2,19.3-57.2,12.2-86.1
			c-4.5-19.1-15-37.6-31.8-48.2C765,187,751.5,183,738.4,184.5z"/>
		<path class="st0" d="M628,542.2c11.6-2.5,24.4-5.4,35.9-0.9c4,1.4,7.6,4.4,9.2,8.4c1.5,10-0.4,20.5,3.5,30
			c11.3,32.3,22.3,64.7,33.8,96.9c5.3,16.4,12.9,31.9,18.9,48.1c12.7,29.8,26,59.7,44.8,86.2c7.4,7.9,14.3,18.6,26,20
			c7.2,2.9,11-4,13.5-9.2c9.2-22,6-46.5,6.3-69.7c-2.5-52.5-11.4-104.6-22-156c-2.4-11.2-5.4-22.5-5.8-34c-0.3-5.2,3.4-9.8,7.8-12
			c5-2.1,10.7-0.7,15.4,1.7c8,3.4,15.3,8.5,21.7,14.3c3.9,4.6,5.8,10.4,8,16c16.3,45.7,26.6,93.6,29.7,142.1
			c3.2,40.9,0.9,83.5-15.1,121.7c-7,16.6-18.1,31.4-32.4,42.4c-8.4,6.2-19.1,8.2-29.3,8.8c-22,1.5-42.5-10.2-57.2-25.8
			c-12-11.7-21.7-25.6-29.8-40.2c-21.2-37.6-34.5-79-47.4-120c-1.1,0.1-2.2,0.3-3.3,0.4c-3.2,14.6-2.6,29.7-2.2,44.6
			c3.3,46.6,8.9,93,13.2,139.5c2,9.2-7.7,14.6-15.3,15.8c-13.3,3.2-27.7,2.2-40.4-3c-6.8-5.3-10.6-13.6-12-22
			c-3.2-15.5-4.2-31.2-6.1-46.8c-2.1-15.5-0.9-31.3-2.8-46.8c-1.6-25.8-0.2-51.7-1.3-77.5c1.1-50.2,0.3-101.8,15.4-150.3
			C612.6,555.6,618.1,545.5,628,542.2z"/>
		<path class="st0" d="M171.5,547.7c10.5-2.8,20.9,1.5,29.4,7.5c4.5,3.7,8.5,8.8,8.8,14.9c2.8,42.1-4.9,83.8-8.1,125.7
			c-2.9,34.2-8,68.5-5,102.9c2.4,10.4,9.4,20.2,19.4,24.5c10.8,5.6,23.5,4.1,35.2,3.1c28-4.4,55-13.3,82.5-19.8
			c12.9-3.5,26.4-7.3,39.8-4.6c17.3,10,19.1,36,7.2,50.8c-12,8.5-26.3,12.7-40.2,17c-22.2,7.1-45.3,11-67.9,16.6
			c-16.7,3.5-33.3,7.4-50.2,10.2c-16.8,2.9-33.1,9.1-50.3,8.5c-12.2-1.3-21.3-11.4-25.6-22.3c-6.4-16.4-6.9-34.3-8.7-51.6
			c-2.4-19.2-1.3-38.5-3.1-57.7c-2.1-22.8,1.5-45.5,1.4-68.3c-0.6-19.4,1.9-38.6,2.5-58c3.2-27.4,4.4-55.1,10.4-82.1
			C151.3,554.7,161.8,548.9,171.5,547.7z"/>
	</g>
</g>
</svg>
