<?xml version="1.0" encoding="utf-8"?>
<!-- Generator: Adobe Illustrator 24.3.0, SVG Export Plug-In . SVG Version: 6.00 Build 0)  -->
<svg version="1.1" id="Слой_1" xmlns="http://www.w3.org/2000/svg" xmlns:xlink="http://www.w3.org/1999/xlink" x="0px" y="0px"
	 viewBox="0 0 965 488" style="enable-background:new 0 0 965 488;" xml:space="preserve">
<g id="_x23_151515ff">
	<path d="M0,0h964.2c0,162.4,0,324.8,0,487.3c-321.4,0-642.8,0.1-964.2,0V0 M19.8,18c0.1,150.3,0.1,300.7,0,451
		c72.1,0,144.3,0,216.4,0c-0.1-150.3-0.1-300.7,0-451C164.1,18,91.9,18,19.8,18 M256.4,17.7c0.4,8.1,0.1,16.2,0.2,24.3
		c0,35.3,0,70.7,0,106c-0.1,28.8,0.3,57.5-0.2,86.2c10.8-0.3,21.7-0.1,32.6-0.2c61.3,0.1,122.6-0.2,183.9,0.1
		c0.3-14.7,0-29.5,0.1-44.2c-0.1-57.4,0.2-114.8-0.1-172.3C400.7,17.8,328.6,17.8,256.4,17.7 M492.6,17.7
		c-0.2,72-0.1,144.1-0.1,216.1c8.5,0.5,17,0.1,25.5,0.3c59,0,118,0,177,0c4.6,0,9.2,0.2,13.7-0.4c0.2-4.2,0.1-8.4,0.2-12.6
		c0-59,0-118,0-177c0-8.8,0.2-17.6-0.4-26.3C636.5,17.7,564.5,17.6,492.6,17.7 M729.8,18.1c0,150.4,0,300.7,0,451
		c72.1,0,144.3-0.1,216.4,0.1c-0.1-150.4,0-300.9,0-451.3c-16,0.3-32.1,0.1-48.1,0.2C841.9,18,785.8,18,729.8,18.1 M256.5,252.2
		c0.1,72.2,0,144.3,0.1,216.5c72.1,0,144.2,0,216.3,0c0.3-21.2,0-42.5,0.1-63.8c-0.1-50.9,0.2-101.9-0.1-152.8
		C400.7,252.2,328.6,252,256.5,252.2 M492.3,252.3c0.2,20.6,0,41.1,0.1,61.7c-0.1,51.5,0.1,103.1-0.1,154.6
		c13.9,0.5,27.8,0.1,41.7,0.2c58.2-0.1,116.5,0.2,174.7-0.2c0.2-72.1,0.1-144.3,0-216.4c-47.2-0.4-94.5-0.1-141.8-0.2
		C542.1,252.2,517.2,251.8,492.3,252.3z"/>
	<path d="M320.4,32.4c5.4-1.5,11.5-1,16.4,1.8c3.2,2.2,6.5,5.5,6.1,9.8c-2.6,22.6-6.7,45.3-6.6,68.1c0.5,3.6-0.3,8.3,3.1,10.6
		c2.8,1.1,5.6-0.7,7.7-2.4c8.2-7,14.1-16.1,20.5-24.6c9.9-14.9,19.3-30.1,28.7-45.3c3.3-5.5,5.8-12.1,11.7-15.4
		c4-2.1,8.6,0,12.2,1.8c4.7,2.5,9.7,7.2,8.7,13.1c-1.3,5.4-4.5,10.1-7.2,14.9c-11.1,18.7-23.5,36.7-34.6,55.3
		c-2.7,4.5-4.1,10.2-1.3,15c12.2,22.8,31.3,40.7,47.2,60.9c3.8,4.3,2.1,10.8-0.8,15.2c-2.6,3.7-6.4,7.5-11.2,7.8
		c-5.6,0.8-9.9-3.7-14.1-6.8c-16.4-13.9-31-29.8-45.4-45.7c-2.9-2.9-7.1-6.1-11.5-4.5c-4.8,1.5-6.8,6.7-7.8,11.1
		c-1.7,9.3,0.6,18.7,0.9,28c0.5,4.2-3.4,6.8-6.8,8.4c-5.9,2.8-12.9,1.7-18.5-1.3c-6.8-6.1-8.1-15.8-9.8-24.3
		c-3.6-24.8-2.6-50-2-74.9c1.1-20.3,2.3-40.7,4.8-60.9c0.4-3.2,0.5-6.4,1.5-9.5C314.2,35.6,317.1,33.5,320.4,32.4z"/>
	<path d="M566.4,32.6c5.2-1.2,11.5-1.5,15.7,2.3c3.4,2.9,3.8,7.8,2.6,11.9c-3.6,10.4-15.8,17.4-26.5,14.1c-5-1.3-8.1-6.8-7.2-11.8
		C552.1,41,559,35,566.4,32.6z"/>
	<path d="M648.4,32.6C653.6,31.3,660,31,664,35c3.2,2.8,3.7,7.5,2.7,11.5c-2.5,7.5-9.4,12.8-16.9,14.7c-4.3,0.8-9.4,1-12.9-2.1
		c-4.3-2.8-5-8.9-3.2-13.4C636,39.2,642,34.7,648.4,32.6z"/>
	<path d="M80.1,35.1c0.7,0,2,0.1,2.6,0.2c0.3,2.4,0.1,5.1,2,7c-1.8,1.8-1.9,4.2-2,6.5c1.7,0.2,3.5,0.3,5.2,0.5c0,0.7,0,2,0,2.7
		c-1.5,0.5-3.1,0.9-4.6,1.4c-0.2,5.6-0.4,11.2-0.1,16.8c3.1,27.7,7.2,55.2,10.1,82.9c2.3,20.7,4.5,41.4,7.4,62.1
		c0.8,6.1,0.1,12.5,2.2,18.3c3-6.8,1.7-14.5,4.2-21.4c4.6,5.6,1.7,13.2,3.1,19.7c1.3,6,0.3,12.2,1.1,18.3c1.3,6.6,0.2,13.4,0.7,20
		c0.4,5.3,0.2,10.7,0.3,16c-0.1,5.3,1.5,10.4,2,15.7c9,0.2,17.9,0.1,26.9,0.1c1-3.9,2.5-7.8,3-11.8c-0.6-14.3-1-28.7,0.8-42.9
		c-0.4-7.5,1.7-14.7,1.5-22.2c0.4-3.9-0.2-8.4,2.4-11.6c3.1,6.8,1.5,14.7,4.4,21.6c1.8-2.2,1.4-5.1,1.6-7.8
		c0.1-3.6,0.1-7.2,0.8-10.7c1.6-6,1.8-12.2,2.8-18.2c5.4-39.7,9-79.7,14.5-119.4c0.8-8.7,3.2-17.4,1.6-26.1
		c-1.6-0.3-3.2-0.6-4.8-0.9c0.2-0.7,0.6-2,0.8-2.6c1.6-0.2,3.3-0.3,4.9-0.4c-0.3-2-0.8-3.9-1.2-5.8c0.3-2.7,1-5.3,1.5-8
		c0.8,0.1,2.3,0.2,3.1,0.3c0.9,4.5,1.3,9.1,0,13.6c1.9,0.1,3.8,0.2,5.7,0.4c0.1,0.6,0.4,1.9,0.5,2.6c-2.5,0.5-6.3,0.7-5.7,4.3
		c0.3,16,2.1,32,3.7,47.9c2.1,21.8,5.8,43.3,8.3,65.1c2.1,13.7,3.5,27.5,5.5,41.2c0.8,7.2,2.2,14.3,2.6,21.6c0.7,0.1,2,0.2,2.7,0.3
		c-0.4-6-0.2-12.1,1.4-18c0.4,0,1.1,0,1.5,0c1.9,4.3,0.4,9.1,1.5,13.5c2.5,12.3,0.9,25,2.3,37.4c-0.1,8-0.2,15.9-0.5,23.9
		c-0.3,1.8,0.7,3.3,1.4,4.9c1-4.2,0.9-8.6,2-12.8c0.9,1.6,1.9,3.3,1.9,5.2c0.5,7.6-0.1,15.2,0.4,22.9c0,3.8,2.7,7,2.3,10.8
		c0,43.4,0.2,86.7-0.1,130.1c-58.1,0-116.2,0-174.3,0c-0.5-45-0.7-90-1-134.9c5-6.7,2.5-15.4,2.6-23.1c0.4-4.3,1.1-8.7,2.5-12.8
		c0.7,5.2-0.5,10.7,1.5,15.6c2-7.7,2.4-15.8,1.7-23.7c0.4-11.1-0.6-22.3,1.5-33.3c0.5-7.9,1.2-15.8,1.8-23.7c0.5-2,1.2-2.1,2.1-0.2
		c0.8,4.7,1.2,9.4,1.5,14.2c0,1.6,1,3,1.7,4.4c2-6.1,1.9-12.6,2.7-18.8c2-10.8,2.3-21.8,3.7-32.6c3.1-25.8,6-51.6,9.7-77.4
		c1.8-16.8,5.1-33.4,5.3-50.4c-2.5-0.4-5.2-0.7-5.4-3.7c2-0.3,4-0.6,6-0.9c-0.3-2.2-0.8-4.3-1.1-6.4C79.1,39.9,79.7,37.5,80.1,35.1z
		"/>
	<path d="M832,46.1c8.2-5,19.6-6.5,27.8-0.8c13.9-7.1,33.3-3.8,42.4,9.5c2.5,1.8,5.6,2.9,7.1,6c5.2-0.2,10.7,1.9,13.3,6.6
		c1.6,3.7,5.8,4.8,7.8,8.1c3.4,5,4.1,11.4,3.1,17.3c1.9,2,4.4,3.8,5.1,6.6c1,3.2-0.8,6.4-1.9,9.4c-0.8,2.7-4.2,3.3-5,6
		c-6.2,17.3-10.8,35-15.2,52.8c-12.9,56.6-23,114.2-23.5,172.4c0,21.6,1.3,43.7,8.8,64.1c0.9,2.8,2.7,5.2,4.6,7.4
		c2.8,3.2,7,4.9,9.5,8.4c1.6,2.4,4,4.4,4.5,7.4c0.7,4,0.9,8.5-0.9,12.2c-4.7,6.3-12.8,8.2-20.1,10c-28.5,5.1-57.7,4.8-86.6,4.4
		c-15.3-1-31-1.6-45.8-6c-5.6-2-12.3-4.2-14.7-10.2c-1-4.6-0.6-9.6,1.2-14c3.6-7.2,12.5-9.7,16.1-16.8c6.5-16.5,9.1-34.3,9.4-51.9
		c0.3-6.2,0.9-12.4,0.6-18.6c-0.8-14.9-0.7-29.9-2.5-44.7c-1.7-17.7-3.8-35.4-6.8-52.9c-2.3-16.8-6.2-33.2-9.3-49.9
		c-5.7-24.7-11.3-49.4-19.7-73.4c-0.9-3.7-5.4-4.8-6.4-8.5c-2.1-4.3-1.3-9.4,2.2-12.8c-3.5-7.1-0.5-15.9,6.2-19.8
		c3.4-1.4,2.7-5.6,4.9-8.1c2-2.3,5.5-2.2,7.4-4.6c15.1-14.8,38.3-19.1,58.4-13.5c2.3-1.9,4.5-4.2,7.5-4.6
		C825.3,42.6,829,44.2,832,46.1 M831.8,51.3c-2.4-3.1-6.5-5.5-10.3-3.9c-2.7,0.7-3.9,3.2-5.5,5.2c-20.2-6.3-44.3-2.6-59.3,13.1
		c-1.7,2.3-5.5,1.5-6.6,4.3c-1.1,1.8-0.5,3.8-0.1,5.7c-7.4,1.2-13.3,9.5-9.9,16.7c5.5-1.9,10.8-4.3,16.4-5.9
		c10.5-2.3,21.1-3.9,31.8-5.1c25.5-2.4,51.2-2.8,76.8-1.4c22,1.4,44.5,3.2,65.4,11c0.7-6.1-0.6-13.9-6.8-16.8c-3-1.1-3-4.8-5.3-6.7
		c-3-3.3-7.9-3.4-11.9-2.5c-0.4-1.5-0.6-3-1.3-4.3c-1.3-0.9-3-1-4.5-1.4c-7.6-14.6-28.7-17.9-41.9-9.2c-2.4-3.5-6.7-4.8-10.8-4.9
		C842.2,45.5,835.9,46.7,831.8,51.3 M813.6,84.9c0.7,3,0.6,6.1-1.7,8.4c-1.5-1.4-2.4-4.2-4.7-4.1c-2.8-0.4-2.1,3.6-3.8,5
		c-6.2,1.4-12.8,2.7-19,0.5c-0.8-2.4-0.5-5.8-3.1-7.1c-1.8-1.5-4.1,0-6,0.4c0.4,2.5,2.6,5.4,0.4,7.7c-3.6,2.3-8.8,2.4-12.3,0
		c-1.6-1.1-1.3-3.4-1.7-5.1c-6.8,0.6-13.3,2.8-19.4,5.7c-2,1.3-5.1,2.8-4.5,5.7c-0.5,3.5,2.8,6.3,6.1,6.1
		c28.8-6.8,58.5-10.3,88.1-10.2c33.6-0.4,67.3,3.4,100,11c2.6-2.6,3.5-6.2,3.2-9.8c-7-0.8-14.7,1.3-21.2-2.2
		c-2.9-1.4-3.6-4.8-4.7-7.4c-7.5-1.3-15.1-2.2-22.7-3.2c1.9,2.5,4.1,4.8,5.4,7.7c-0.9,4.4-7.1,3.9-10.2,2.2
		c-3.1-2.3-1.4-6.6-0.5-9.6c-8.3-2.5-17.2-1.8-25.8-1.7c-0.3,3.4-1.2,6.7-3.5,9.3c-1.6-0.9-3.6-1.3-4.4-3c-1.4-1.9-0.1-4.2,0.2-6.3
		C836.4,84.6,825,85,813.6,84.9 M824.5,126.4c-1.5,0.4-2.9,1.9-2.5,3.5c-0.2,3.9,6.5,4.6,7.3,0.8C830.3,128,827.1,125.5,824.5,126.4
		 M790.3,133.2c1,0.2,2.1,0.5,3.1,0.7c0.6-0.9,1.2-1.9,1.8-2.8c-1-0.8-2-1.7-3-2.5C790.8,129.8,790.1,131.3,790.3,133.2 M902,129.4
		c0.1,1.2,0.2,2.4,0.3,3.7c2.4,0.6,3.5-1,3.6-3.2C904.6,129.6,903.3,129.5,902,129.4 M898.5,131.5c-0.1,0.9-0.4,2.7-0.5,3.6
		c0.9,0,2.7,0,3.6-0.1C901.6,133,900.5,131.8,898.5,131.5 M795.6,137.3c1.1,1.8,3.4,0.1,4.8-0.5c-0.5-1.5-1-3.1-2.6-3.8
		C795.9,133.3,793.7,135.7,795.6,137.3 M837.7,132.6c-0.3,1-0.8,2.9-1.1,3.9c1.3-0.6,3.4-0.3,3.5-2.2
		C839.2,133.8,838.5,133.2,837.7,132.6 M879.7,135.2c0.4,1.9,0.6,5.3,3.4,5c3.2,0.6,5.3-4.1,2.4-5.8
		C883.6,132.9,881.5,134.4,879.7,135.2 M906.1,137.7c1.3,2.4,4.7,1.8,5.5-0.6c-0.6-1.4-1.6-2.5-2.5-3.7
		C907.8,134.6,905.3,135.5,906.1,137.7 M827.9,137.8c-10.1,0.3-20.1,1.7-30.1,3.3c-1.4,0.3-2.7-0.6-4-0.9c-4,3.4-9.6,3.1-14.4,4.6
		c0.6,28.4,1.3,56.8,3.4,85.2c1,15.1,5.9,30.2,15.3,42.1c-0.6,2.2-2.9,4.5-1.3,6.8c1.7,2.9,5.3,2.4,8,1.3
		c6.2,6.9,13.4,13.5,22.4,16.5c-2.8,2.2-3.5,7.2,0.5,8.5c2.5,1.6,4.6-1.1,6.4-2.5c-0.3-1.5-0.6-2.9-0.9-4.4
		c11.5,1.9,22.7-3.5,31.1-11.1c11.6-10.7,21.4-24,25.7-39.4c2.9-9.7,3.2-19.9,3.9-30c0.5-10.5,1.5-20.9,1.2-31.4
		c1.5,2.2,4.6,3.7,6.7,1.2c2.3-2.4-0.5-5.1-2.7-6.1c-1.3,0.8-2.6,1.6-3.9,2.4c1-13,0.9-26.1,1.2-39.1c-2-0.5-4.1-0.9-6.1-1.2
		c0.9-1.3,3.1-3.4,1-4.7c-1.4-1.5-2.9,0.3-4.3,0.9c0.6,1.1,1.3,2.2,2,3.4c-17.2-3.7-34.7-5.9-52.3-5.6c-0.9-1-1.7-2.1-2.8-2.9
		C831.3,134.6,830.4,138,827.9,137.8 M902.2,140.4c-1.1,1.9,1.5,2.8,2.4,4c0.4,1.4,0.8,2.8,1.1,4.2c1.8-0.1,3.2-1,4.5-2.3
		c-2.1-2.2-3.4-4.8-4.5-7.6C904.5,139.2,902.7,139,902.2,140.4 M912.8,138.9c0.1,1.1-0.8,2.6,0.2,3.4c1,1.6,2.9,0.3,4.3,0.1
		c-0.2-0.9-0.6-2.7-0.8-3.6C915.2,138.8,914,138.9,912.8,138.9 M907.3,155.1c-3.2,1.7-0.9,6.5,2.3,5.7c1.3-0.8,3-1.9,2.3-3.7
		C911.7,154.9,909.1,154.5,907.3,155.1 M900.5,168.4c-1.5,0.8-1.8,3.5-0.4,4.5c1.8,2.3,6.2,0.1,5.3-2.8
		C905.2,167.8,902.1,167.2,900.5,168.4 M888.7,259.6c-0.6,1.7-1.2,4.3,1.4,4.6c2.8,0.7,3.2-2.4,2.6-4.4
		C891.4,259.8,890,259.7,888.7,259.6 M882.4,269c-1.8,0.8-3,2.8-2.5,4.8c0.7,3.3,5.6,4.4,7.6,1.5C890.3,272.1,886,267.3,882.4,269
		 M800.3,283.5c-2.4,0.1-3.5,3.2-1.9,4.9c1.7,2.2,6.4,0.7,5.7-2.4C804.2,284.2,802,283,800.3,283.5 M879.4,284.2
		c0.4,1.6,1.3,3,2.5,4.1c0.5-1.3,1-2.6,1.5-3.9C882.5,284.4,880.5,284.3,879.4,284.2 M861.2,290.9c-1.9,0.2-4.1,2.8-2.8,4.7
		c0.9,2.5,4.6,3.1,6.1,0.8C866.8,294.1,864.3,289.9,861.2,290.9 M832.4,308.3c-3,0.7-4,5-1.3,6.6c2.3,1.9,6.5,0.3,6.2-2.9
		C837.6,309.3,834.8,307.7,832.4,308.3 M843.4,317.3c-2.5,0.5-3.1,3.2-2.3,5.4c1.6,2.1,5.2,2,6.5-0.3
		C849.3,319.9,845.9,316.5,843.4,317.3 M831.2,319.2c-1.6,0.6-3.6,1.7-3.2,3.7c0,3.1,5.1,4.5,6.5,1.5
		C836.3,322.3,833.5,318.9,831.2,319.2 M802.5,325.5c-3.2,1-2.9,5.9,0.2,6.7c2.3,0.9,5.2-0.6,5.3-3.2
		C808.2,326.3,804.7,324,802.5,325.5 M836.5,326.2c-2.9,2.4,0.5,7.3,3.7,5C844,329.1,839.7,323.5,836.5,326.2 M810.4,335.5
		c-2.3,0.4-3.4,3.2-2.2,5.1c1.3,2.5,5.7,1.7,6.2-1.1C815.3,337.1,812.6,335,810.4,335.5 M821.2,341.1c-2.2,0.8-1.9,4,0,5
		c1.9,0.7,5.2-0.5,4.2-2.9C825.3,341,822.8,340.5,821.2,341.1 M816.3,347c-4.1,2.3,1.3,7.6,4.1,4.3C823,348.9,819,345.3,816.3,347
		 M847.3,382.3c-3,0.8-1.4,5.7,1.5,4.8C852.8,386.8,850.8,380.4,847.3,382.3 M809.4,385.3c-2.5,2.4,2,5.6,3.8,3
		C815.3,386.1,811.4,383.6,809.4,385.3 M848.7,395c1.1,2.5,3.5,2.3,5.6,1.3c-0.3-0.9-0.8-2.8-1.1-3.7
		C851.3,392.5,849.4,393,848.7,395 M809.8,396.9c0.3,3,3.6,2.1,5.5,1.3c-0.4-1.3-0.8-2.6-1.2-3.9
		C812.2,394.5,809.9,394.5,809.8,396.9 M807.2,399.9c0,1.4,0,2.9,0.1,4.3c1.6,0.1,3.2,0.1,4.8,0c0-1.5,0-3,0.1-4.4
		C810.5,399.8,808.8,399.8,807.2,399.9 M843,399.7c0,2.2-1.2,3.8-2.7,5.3c0.6,0.6,1.9,1.8,2.6,2.4c1.4-2.4,3.1-4.8,3.9-7.5
		C845.8,399.9,844,399.8,843,399.7 M851.1,401.2c0,1.2,0.1,2.4,0.2,3.6c1.2,0,2.4,0.1,3.6,0.1c0.1-1.3,0.1-2.6,0.2-3.8
		C853.7,401.1,852.3,401.1,851.1,401.2 M815.3,403c-0.7,0.9-1.3,1.9-1.8,2.9c1.4,0.5,2.8,1.1,4.3,1.3c0.6-1.1,1.1-2.2,1.6-3.3
		C818.1,403.6,816.7,402.5,815.3,403 M808.6,410.1c1.6,0.4,3.5,1.9,4.9,0.4c1.7-1.5-0.1-3.3-0.7-4.9
		C810.2,405.9,808.8,407.6,808.6,410.1 M847.1,408.9c0,2.2,2.7,1.2,4.1,1.5c-0.2-1-0.7-2.9-0.9-3.8
		C849,407.1,846.4,406.8,847.1,408.9 M800.6,408.8c0.2,1.2,0.6,2.4,1,3.6c1.1,0.4,2.3,0.7,3.5,1c0.6-1.8,1.8-4.1-0.3-5.4
		C803.4,408,802,408.4,800.6,408.8 M843.6,411c0,0.6,0,1.8,0,2.4c0.6,0.1,1.9,0.4,2.5,0.5c0.1-0.9,0.3-1.8,0.4-2.7
		C845.6,411.1,844.6,411,843.6,411 M825.3,419.4c-0.1,1.4-0.2,2.9-0.4,4.3c-1.1,2.3-3.9,2.4-5.9,3.3c19.2,2.8,39,2.5,58.2-0.8
		c-2.6-0.8-5.4-1.2-7.8-2.5c-1.5-1.1-1.9-2.9-2.6-4.5C853,416.4,839,417,825.3,419.4 M892.4,428.2c-19.2,3.2-38.8,4.1-58.3,3.9
		c-0.5,3-0.6,6.6,2,8.8c3.7,3.2,9,4.2,13.8,4c4.9-1,4.6-7.4,8.7-9.4c3.7-1.3,7.4,0.5,10.5,2.5c1.6-1.3,3.3-3.3,5.7-2.9
		c4.1,0.9,7.5,3.6,10.2,6.8c1.8,2.7,5.7,2.7,8.3,1.2c2.9-1.3,2.1-6.4,5.8-6.6c2.5,0.4,4.2,2.4,6.2,3.8c2.5-2.6,5.4-5.6,5.1-9.5
		c0-2.8-2.5-4.6-4.4-6.2C901.5,426.2,897,427.6,892.4,428.2 M786.4,430.4c-2.4,1-5.7-1-7.6,1.3c-1.8,2.4,1,4.6,2,6.7
		c1.8,2.5,0,5.5-1.2,7.8c14.6,2.5,29.5,2.7,44.3,3.7c-1.6-1.4-3.2-2.8-4.5-4.4c-1.9-3.8,0.3-7.8,1.7-11.3
		C811,427.6,797.6,426,786.4,430.4z"/>
	<path d="M594.5,62.9c10.9-2.4,22.5-2.1,33.1,1.7c17.7,5.8,31.5,20.8,37.8,38.2c9.8,26.8,4.7,57.9-11.5,81.1
		c-9.7,14.1-23.8,25.5-40.3,30.6c-11.3,3.9-23.8,3.8-35.1,0.2c-16.7-4.9-30.7-17.6-37.8-33.3c-6.8-14.2-8.5-30.6-6.1-46.1
		c3.1-21.1,13.2-41.4,29.1-55.7C572.2,71.5,583,65.7,594.5,62.9 M600.4,90.6c-3.5,0.8-6.9,2.1-10,3.8c-23.4,12.6-35.3,42-29.2,67.5
		c2.4,10.2,8.3,20,17.4,25.4c6.6,4.1,14.7,4.9,22.3,3.7c13.6-2.9,24.6-13,31.5-24.7c7.5-13.2,11.7-28.8,9.2-43.9
		c-1.5-9.4-5.6-18.8-13-25.2C621.2,90.4,610.2,88.2,600.4,90.6z"/>
	<path d="M781.2,146.5c14.9-2.6,29.6-6.4,44.8-6.6c16.2-0.8,32.5-0.3,48.4,2.8c6.8,1.2,13.5,2.7,20.3,3.8
		c-0.8,17.1-0.5,34.1-1.6,51.2c-17.9-1.8-36-1.8-54-1.9c-18.7,0.1-37.4,0.1-56,1.9C781.7,180.6,782.1,163.6,781.2,146.5
		 M835.2,154.1c0.7,1.2,1.5,2.4,2.2,3.6c-1.6-0.2-3.2-0.5-4.8-0.7c-0.6,1.9-0.1,3.8,0.9,5.5c0.7-0.9,1.5-1.8,2.2-2.8
		c0.6,1.2,0.6,3.1,2.2,3.5c1.4-0.5,1.5-2.3,2.2-3.4c0.8,0.8,1.6,1.6,2.5,2.4c0.4-1,0.8-2.1,1.2-3.1c-0.3-0.5-0.9-1.6-1.2-2.1
		c-1.4,0.3-2.8,0.6-4.2,0.8c0.7-1.2,1.4-2.5,2.2-3.7c-0.9-0.9-1.9-1.8-2.8-2.8C837.1,152.3,836.1,153.2,835.2,154.1 M848.7,154.3
		c0.5,1.2,1,2.5,1.6,3.7c-1.5-0.2-3.2-1.2-4.6-0.2c-0.9,1.4,0,3.1,0.2,4.6c0.9-0.8,1.9-1.6,2.9-2.4c0.3,0.5,0.9,1.6,1.2,2.1
		c-1.9,3.5-1.9,7.3-1.7,11.1c-0.8-0.2-2.4-0.5-3.3-0.6c0.3-2.8,0.4-5.5-0.3-8.2c-2.3,2.3-1.9,5.7-1.9,8.7c-0.8-0.1-2.5-0.3-3.3-0.4
		c0.4-2.9,1.2-5.7,0.5-8.7c-1.4-0.1-2.8-0.2-4.2-0.3c-0.3,3.1-0.2,6.2,0.1,9.2c-0.8,0-2.3-0.1-3-0.1c-0.5-2.8,1-6.7-2-8.4
		c-0.2,2.7-0.1,5.5,0,8.2c-0.8,0.2-2.4,0.5-3.2,0.7c0.2-3.3,0.2-6.6-0.5-9.8c-0.5,0.2-1.5,0.6-2,0.7c-0.1,3.6,0.5,7.2,0.7,10.8
		c8,0.4,16.1,0,24.2,0.3c0.6-7.8,1.2-15.6,1.8-23.4C850.8,152.6,849.8,153.4,848.7,154.3 M803.1,152.5c-0.8,1.1-1.6,2.2-2.3,3.4
		c0.4,1.3,0.9,2.6,1.4,3.8c-1.5-0.2-3.4-1.3-4.5,0.4c0.1,1.5,0.6,3,1,4.4c1.1-1.1,2.2-2.2,3.4-3.1c0.8,4.5-1.5,8.8,0.2,13.3
		c-0.7,0.1-2.1,0.2-2.8,0.3c-0.6-2.9-0.6-6-2-8.6c-0.8,2.4-0.4,4.9-0.1,7.4c-0.7,0.9-1.6,1.7-2.4,2.5c-0.9-4.5-1.6-9.1-3.2-13.4
		c1.5,0.4,3,0.9,4.4,1.4c-0.1-1.5-0.2-2.9-0.3-4.4c-1.5,0-3.3,1.3-4.5,0.1c0.3-1.2,0.6-2.3,0.9-3.5c-0.7-0.6-2.2-1.7-3-2.2
		c1,7.8,2,15.6,3.4,23.3c4.7-0.3,9.4-0.7,14.1,0c-5.1,0.8-10.4-0.3-15.4,1.1c3.9,0.7,7.9,0.6,11.9,1c-3.4,0.3-6.7,0.2-10.1,0.2
		c0,1,0,2.9-0.1,3.8c1.8-0.1,3.5-0.3,5.3-0.3c-1.7,0.4-3.4,0.6-5,0.8c0,1.2,0,2.4,0,3.6c7.9-0.8,15.8-0.3,23.6-1.1
		c-5.7-1.5-11.6-0.4-17.4-1c5.4-0.6,10.9-0.4,16.4-0.2c-0.2-2.2-0.3-4.4-0.3-6.6c-1.5,0.1-2.9,0.1-4.4,0.1c1.9-0.6,3.9-1.1,5.8-1.7
		c-2.7-0.3-5.5-0.2-8.2-0.7c2.3-0.5,4.7-0.3,7-0.3c0.2-8,1.2-16.1,1.3-24.1c-1,1.1-2.1,2.2-3.1,3.3c0.6,1.2,1.2,2.3,1.9,3.5
		c-1.5-0.1-3-0.2-4.6-0.2c-0.4,1.4-0.6,2.8-0.9,4.2c1.5-0.2,2.9-0.5,4.4-0.8c-0.2,3.6-2.2,7.3-0.6,10.9c-0.6,0.6-1.7,1.7-2.3,2.3
		c-1.9-2.4-1.6-5.5-1.4-8.4c-0.5,0-1.4,0-1.9,0c-0.5,3,1.1,6.9-2,8.8c-0.2-0.7-0.8-2.1-1-2.8c0.8-3.8-0.6-7.4-1.1-11.1
		c1.4,0.5,2.9,1,4.4,1.5c0-1.5,0-3,0-4.5c-1.7,0.2-3.3,0.5-5,0.6c0.6-1.2,1.3-2.4,2-3.6C805.1,154.8,804.1,153.6,803.1,152.5
		 M824.1,151.7c0.5,3.7,0.4,7.5,1.1,11.2c1.6,0.3,1.3-2,2-2.9c0.9,0.8,1.9,1.7,2.9,2.5c0.2-1.7,0.4-3.4,0.5-5
		c-1.6,0.1-3.2,0.2-4.8,0.4c0.4-1.2,0.9-2.3,1.4-3.5C826.4,153.7,824.9,152.4,824.1,151.7 M858.8,152.3c0.1,7.9,0.9,15.8,1.3,23.8
		c2.8,0.1,5.6,0.1,8.4,0.5c-2.9,0.3-5.9,0.3-8.8,0.3l0.1,1.3c3.3,0.1,6.5-0.1,9.8,0.2c-3,0.4-6.1,0.3-9.2,0.5c0,2.2-0.1,4.4-0.1,6.5
		c5.4-0.3,10.8-0.5,16.2,0.1c-5.8,0.6-11.7-0.5-17.5,0.9c7.8,1.1,15.8,0.1,23.6,1.3c0-2.2,0.1-4.3,0-6.5c0.2-0.4,0.7-1.1,0.9-1.5
		c-4.5,0.1-9.1,0-13.6-0.3c4.9-0.2,9.9,0,14.8-0.8c-5-1.6-10.3-0.4-15.4-1.3c4.7-0.6,9.5-0.3,14.3-0.1c1-7.7,2.3-15.4,3.1-23.2
		c-0.7,0.6-2.2,1.8-2.9,2.4c0.4,1.2,0.8,2.4,1.2,3.7c-1.6,0.1-3.1-0.1-4.7,0c-0.2,1.4-0.3,2.8-0.4,4.2c1.5-0.5,3-1,4.5-1.5
		c-1.5,4.3-2.3,8.7-3.1,13.2c-0.7-0.5-2.1-1.6-2.8-2.1c0.8-2.5,1.3-5.3-0.2-7.7c-0.9,2.8-1,5.8-1.5,8.7c-0.7,0-2.1-0.1-2.9-0.1
		c0.3-2.7,1-5.4,0.1-8c-0.7-1.8,0.1-3.6,0.6-5.4c0.9,1,1.8,2.1,2.6,3.1c0.5-1.7,1-3.5,1.3-5.3c-1.7,0.1-3.3,0.2-5,0.4
		c0.7-1.3,1.3-2.5,2.1-3.8c-1-1.1-2-2.2-3-3.4c-0.8,1.1-1.7,2.1-2.4,3.4c0.4,1.2,1,2.3,1.5,3.5c-1.6-0.2-3.3-0.4-4.9-0.6
		c0,1.4,0,2.7,0,4.1c1.4-0.2,2.8-0.5,4.3-0.8c-0.5,3.3-1.3,6.6-0.9,9.9c0.4,1.7-1.6,2.6-2.4,3.9c-1.4-3.2,0.5-7.3-2.3-9.8
		c-0.6,3.4,0.8,7.5-2.8,9.6c-0.8-4.8-1.2-9.5-2-14.3c1,0.5,3,1.6,4,2.2c0.1-1.4,0.3-2.8,0.4-4.2c-1.5-0.9-3.4-0.4-5.1-0.5
		c0.6-1.1,1.1-2.2,1.7-3.4C860.8,154.3,859.8,153.3,858.8,152.3 M824.7,176.1c4.2,1.9,8.9,0.9,13.3,1.1c4.4-0.3,9.1,0.7,13.3-1
		C842.5,175.7,833.5,175.6,824.7,176.1 M826.2,177.8c0.1,2.8,0,5.5,0.1,8.2c8-0.1,16.1,0,24.1,0.1c-0.7-2.7-0.9-5.6-0.8-8.3
		C841.9,178,834,177.9,826.2,177.8z"/>
	<path d="M866.4,181.4c4.7-0.4,9.4-0.4,14.1,0.1C875.8,181.9,871,182.1,866.4,181.4z"/>
	<path d="M858.7,208.8c1.7,2.7,2.2,5.7,1.8,8.9c1.3,2.5,3.7,5.5,1.6,8.3c-1.5,3.4-6.8,3.2-7.8-0.4
		C852.2,219.4,858.9,214.9,858.7,208.8z"/>
	<path d="M797,225.9c-2.5-6.1,3.9-10.8,4.7-16.6c0.9,2.1,1.7,4.3,1.4,6.6c-0.5,3.3,3.7,5.8,2,9.1C804.2,228.7,798.5,229.8,797,225.9
		z"/>
	<path d="M820.6,209.2c1,2.1,1.8,4.3,1.6,6.7c-0.3,2.7,2.1,4.6,2.6,7.1c-0.5,2.2-1.4,4.8-4,5.3c-4.1,1.1-6.4-4.2-5-7.5
		C817.4,216.9,820,213.4,820.6,209.2z"/>
	<path d="M839.7,209.2c1.8,2.5,1.9,5.4,1.7,8.4c1.1,2.6,3.7,5.4,1.6,8.2c-1.6,3.4-6.6,3.3-7.9-0.2
		C833,219.6,839.5,215.1,839.7,209.2z"/>
	<path d="M873.7,219.7c1.7-3.4,3.9-6.6,4.1-10.6c1,1.9,2.4,4,1.9,6.3c-0.8,3.4,3.6,5.9,2.1,9.3c-0.6,2.2-3.2,4.6-5.5,3.5
		C872.6,227.3,872.3,222.5,873.7,219.7z"/>
	<path d="M849.7,234.8c1.6,2.8,2.2,5.8,2,9c1.7,2.8,3.8,7,0.5,9.5c-2.3,2.8-6.7,0.7-7.2-2.5C844,244.8,850.2,240.8,849.7,234.8z"/>
	<path d="M868.7,234.8c1,2,2.5,3.9,2.1,6.2c-1,4,4.3,7.3,1.5,11.1c-1.6,3.3-6.9,3.1-7.9-0.6C862.4,245.3,869.4,241,868.7,234.8z"/>
	<path d="M811.6,235.2c1.2,2.1,2.3,4.3,1.7,6.7c-0.7,3,2.9,4.9,2.4,7.9c-0.3,3-3.9,6.2-6.7,4.2c-3.3-2.2-2.7-7-0.8-10
		C809.9,241.4,811.1,238.4,811.6,235.2z"/>
	<path d="M830.7,235.1c1.2,2.2,2.2,4.6,1.7,7.1c-0.5,2.6,2.4,4.2,2.3,6.8c0.3,2.9-2.1,5.4-4.8,5.8c-4.1-0.7-5.1-5.9-3.3-9.1
		C828.3,242.3,830.2,239,830.7,235.1z"/>
	<path d="M886.1,247.3C889.4,247.4,884.5,250.2,886.1,247.3z"/>
	<path d="M822.6,260.5c1.1,2.3,2.1,4.7,1.6,7.3c-0.6,3,3.2,4.9,2.3,7.9c-0.5,2.8-3.3,5.2-6.2,4.1c-3.5-1.9-3.4-6.9-1.4-9.9
		C820.8,267.1,822.1,263.9,822.6,260.5z"/>
	<path d="M850.2,273.2c1.3-4.3,4.6-7.8,4.7-12.5c1.1,2,2.3,4,2,6.3c-0.5,3.5,3.5,6.1,2,9.6c-0.8,1.5-2,3.4-4,3.3
		C851.4,280.7,849.5,276.2,850.2,273.2z"/>
	<path d="M877.2,266.2C877.8,266.8,877.8,266.8,877.2,266.2z"/>
	<path d="M550.7,268.6c5.2-1.7,10.8-2,16.2-1.3c2.9,0.6,6.1,2,7,5c1.4,4-0.3,8.2,0.8,12.2c11.6,33.6,22.3,67.7,38.2,99.5
		c4.7,8.9,9.7,17.9,17,25c2.9,2.4,6.7,5.3,10.6,3.5c4.9-4.5,5.3-11.6,6.2-17.7c1-14.6-0.2-29.3-1.8-43.8c-2-17.6-4.8-35.1-8.5-52.5
		c-1.3-6.5-3.3-12.9-3.6-19.5c-0.3-4.2,3.7-8,8-7c5.6,1.2,10.4,4.8,14.8,8.4c2.2,2.5,3,5.8,4.2,8.7c8.2,22.8,13.1,46.7,14.8,70.8
		c1,19.5,0.5,39.6-6.7,58c-4.2,10.5-11.1,20.4-21.1,26c-9,3.6-19.6,3-28-1.8c-10.8-5.9-18.6-15.9-24.9-26.3
		c-10.5-17.4-17-36.7-23.2-55.9c-0.8-2.5-1.8-5-3-7.3c-2.6,6.8-1.5,14.2-1.6,21.4c1.2,24.1,4.6,48,6.7,72.1c0.3,3.5-3.2,5.8-6.1,6.7
		c-7.3,2.2-15.3,1.4-22.4-1.4c-6.3-5.3-6.3-14.2-7.4-21.6c-2.9-22.5-3.2-45.2-3.6-67.9c0-17.3,0.4-34.5,2-51.8
		c1.3-11.1,2.6-22.5,6.8-33C543.9,273.5,546.7,270.1,550.7,268.6z"/>
	<path d="M320.4,271.7c8-2.2,18.6,1,21.3,9.5c0.5,9.2,0.3,18.5-0.5,27.7c-1.9,26.7-6.3,53.3-6.5,80.1c-0.2,6.4,1.2,13.5,6.5,17.7
		c7.1,6,17,4.6,25.4,3.1c14.8-3.1,29.3-7.5,44.1-11c4.2-1,8.6-1.3,12.9-0.7c8.8,5,9.3,17.7,4,25.4c-10.8,7.2-23.8,9.6-36.1,13
		c-20.5,5-41.3,8.7-61.9,13.2c-4,0.4-8.5,0.8-11.9-1.6c-5.5-3.3-8.3-9.5-9.5-15.6c-2.3-13.1-3.2-26.4-3.5-39.7
		c-1.4-18.3,0.1-36.6,0.5-54.9c0.9-6.4,0.4-12.9,1.4-19.4c1.1-13.1,2-26.3,5-39.1C312.3,275.2,316.6,272.8,320.4,271.7z"/>
</g>
</svg>
