<?xml version="1.0" encoding="utf-8"?>
<!-- Generator: Adobe Illustrator 24.3.0, SVG Export Plug-In . SVG Version: 6.00 Build 0)  -->
<svg version="1.1" id="Слой_1" xmlns="http://www.w3.org/2000/svg" xmlns:xlink="http://www.w3.org/1999/xlink" x="0px" y="0px"
	 viewBox="0 0 330 330" style="enable-background:new 0 0 330 330;" xml:space="preserve">
<g id="_x23_ffffffff">
</g>
<g id="_x23_000000ff">
	<path d="M70.9,14C94.2,2.4,121.4-1.1,147,3.5c25.1,4.3,48.5,17,66.2,35.2c18.7,18.9,31,44,34.3,70.4c4.1,31-4,63.5-22.7,88.6
		c-1.2,1.6-2.6,3.2-2.7,5.3c34.2,34.1,68.4,68.3,102.6,102.5c5.2,5,5.1,14.1,0,19.1c-5,5.2-14.1,5.2-19.1,0.1
		C271.3,290.4,237.1,256.2,203,222c-1.8,0.1-3.2,1.1-4.6,2.2c-21.8,16.4-49.2,25-76.4,24.2c-22.8-0.5-45.4-7.4-64.4-20
		c-23.7-15.6-42-39.3-50.5-66.5c-8.2-26.3-7.4-55.4,2.5-81.1C20.7,51.9,43.1,27.6,70.9,14 M109.5,29.8C85,33.7,62.3,47.5,47.6,67.4
		C35.5,83.7,28.7,103.8,28.5,124c-0.3,23,8.1,46,23,63.5c15.1,17.9,37.1,29.9,60.3,33.1c22.3,3.2,45.7-1.9,64.6-14.1
		c20.9-13.1,36.3-34.5,42.1-58.4c4.9-19.3,3.4-40.1-4-58.6c-7.7-19.6-22-36.5-40.1-47.2C155.3,30.6,131.8,26.1,109.5,29.8z"/>
</g>
</svg>
