<svg width="2500" height="1563" viewBox="0 0 2500 1563" fill="none" xmlns="http://www.w3.org/2000/svg">
<g clip-path="url(#clip0_402_2)">
<path d="M625.732 624.335C452.46 624.335 312.378 764.417 312.378 937.201C312.378 1109.98 452.46 1250.07 625.244 1250.07C798.028 1250.07 938.11 1109.98 938.11 937.201C938.598 764.417 798.516 624.335 625.732 624.335V624.335ZM625.732 1161.23C502.245 1161.23 401.699 1061.18 401.699 937.201C401.699 813.226 501.757 713.167 625.732 713.167C749.707 713.167 849.278 813.714 849.278 937.201C849.278 1060.69 749.219 1161.23 625.732 1161.23Z" fill="black"/>
<path d="M626.708 1092.41C712.699 1092.41 782.409 1022.7 782.409 936.713C782.409 850.722 712.699 781.012 626.708 781.012C540.717 781.012 471.007 850.722 471.007 936.713C471.007 1022.7 540.717 1092.41 626.708 1092.41Z" fill="black"/>
<path d="M1875.24 624.335C1702.46 624.335 1562.38 764.417 1562.38 937.201C1562.38 1109.98 1702.46 1250.07 1875.24 1250.07C2048.03 1250.07 2188.11 1109.98 2188.11 937.201C2188.11 764.417 2048.03 624.335 1875.24 624.335V624.335ZM1875.24 1161.23C1751.76 1161.23 1651.21 1061.18 1651.21 937.201C1651.21 813.226 1751.27 713.167 1875.24 713.167C1999.22 713.167 2098.79 813.714 2098.79 937.201C2098.79 1060.69 1998.73 1161.23 1875.24 1161.23Z" fill="black"/>
<path d="M1876.22 1092.41C1962.21 1092.41 2031.92 1022.7 2031.92 936.713C2031.92 850.722 1962.21 781.012 1876.22 781.012C1790.23 781.012 1720.52 850.722 1720.52 936.713C1720.52 1022.7 1790.23 1092.41 1876.22 1092.41Z" fill="black"/>
<path d="M2315.5 494.015L2499.51 311.469H2126.61C1917.71 141.613 1570.68 0.0669556 1249.02 0.0669556C926.884 0.0669556 582.78 141.613 373.877 311.469H-5.34058e-05L184.01 494.015C70.285 607.252 -5.34058e-05 763.929 -5.34058e-05 937.201C-5.34058e-05 1282.77 280.164 1562.93 625.732 1562.93C784.362 1562.93 929.325 1503.87 1039.63 1406.26L1251.46 1561.96L1460.86 1409.67L1458.41 1403.82C1569.21 1502.41 1714.66 1562.45 1874.76 1562.45C2220.32 1562.45 2500.49 1282.28 2500.49 936.713C2500 763.929 2429.23 607.252 2315.5 494.015ZM1796.17 316.35C1499.9 353.445 1267.57 597.49 1250 899.618C1231.94 597.002 999.121 352.468 701.874 316.35C851.23 208.97 1041.59 156.256 1249.02 156.256C1456.46 156.256 1646.82 208.97 1796.17 316.35ZM625.732 1406.74C366.068 1406.74 156.189 1196.38 156.189 937.201C156.189 678.025 366.556 467.658 625.732 467.658C884.908 467.658 1095.28 678.025 1095.28 937.201C1094.79 1196.38 884.908 1406.74 625.732 1406.74ZM1875.24 1406.74C1616.07 1406.74 1405.7 1196.38 1405.7 937.201C1405.7 678.025 1616.07 467.658 1875.24 467.658C2134.42 467.658 2344.79 678.025 2344.79 937.201C2344.3 1196.38 2134.42 1406.74 1875.24 1406.74Z" fill="black"/>
</g>
<defs>
<clipPath id="clip0_402_2">
<rect width="2500" height="1563" fill="white"/>
</clipPath>
</defs>
</svg>
